<svg width="181" height="32" viewBox="0 0 181 32" fill="none" xmlns="http://www.w3.org/2000/svg">
<path d="M15.2934 24.9395L1.88578 19.1578L3.50085 18.452C3.76575 18.3415 4.05629 18.3415 4.3212 18.452L15.2934 23.222L29.1197 17.1852C29.4274 16.9726 29.547 16.7005 29.547 16.2499C29.547 16.2499 29.5384 9.91542 29.5384 9.88991C29.547 9.04816 29.3761 8.33394 29.0001 7.74726C29.0001 7.74726 29.0001 7.73875 28.9915 7.73875C28.607 7.14357 28.0259 6.67593 27.197 6.32732C27.1885 6.32732 17.4981 2.13553 16.3616 1.64238C15.6779 1.34479 14.9089 1.35329 14.2252 1.64238L2.09942 6.9225C1.44997 7.21159 1.03125 7.84929 1.03125 8.555V12.6193L15.2848 6.41235L28.6668 12.1771L27.1287 12.8488C26.8723 12.9594 26.5732 12.9594 26.3169 12.8488L20.0019 10.128L15.2934 8.11287L1.50979 14.0817H1.50124C1.2107 14.2688 1.06543 14.4898 1.03125 14.8384V22.2187C1.03125 23.2815 1.6636 24.2423 2.64632 24.6675L9.30312 27.5328L14.2167 29.65C14.9003 29.9391 15.6694 29.9391 16.353 29.65L28.4703 24.3869C28.7095 24.2848 28.9232 24.1233 29.0941 23.9362C29.3761 23.6216 29.547 23.205 29.547 22.7629V19.4554C29.547 19.1748 29.547 18.9197 29.547 18.7241L15.2934 24.9395ZM9.99529 15.6292L13.2852 14.1922L14.7294 13.563L14.7465 13.5545L15.2934 13.3165L16.1565 13.6906L16.1736 13.6991L20.6855 15.6462L17.8143 16.8961L16.2932 17.5593L16.2761 17.5678L15.2848 18.0014L14.7123 17.7548L11.6958 16.4539L11.4138 16.3349L9.8842 15.6717L9.99529 15.6292Z" fill="#00D1BC"/>
<path d="M39.3911 7.4082V24.488H35.6289V7.4082H39.3911ZM42.576 17.547H38.1884V14.4067H42.3835C43.0667 14.4067 43.5863 14.244 43.9423 13.9184C44.2983 13.5929 44.4715 13.1238 44.4715 12.5111C44.4715 11.9079 44.2983 11.458 43.9423 11.1516C43.5863 10.8452 43.0667 10.692 42.3835 10.692H38.4385V7.41778H42.778C44.51 7.41778 45.8667 7.83903 46.8481 8.69111C47.8296 9.53361 48.3203 10.692 48.3203 12.1569C48.3203 13.1525 48.0701 14.0046 47.5794 14.6939C47.0887 15.3833 46.367 15.8811 45.4241 16.1683V15.8428C46.4248 16.063 47.1945 16.5034 47.7334 17.1831C48.2626 17.8629 48.532 18.7341 48.532 19.7872C48.532 20.7829 48.3107 21.6446 47.8681 22.353C47.4255 23.0615 46.7808 23.5977 45.9148 23.9615C45.0585 24.3253 44.0097 24.5072 42.7684 24.5072H38.4289V21.2329H42.5567C43.2495 21.2329 43.7787 21.0797 44.1347 20.7638C44.4908 20.4478 44.6639 19.9787 44.6639 19.3468C44.6639 18.7628 44.4811 18.3224 44.1155 18.0161C43.7787 17.6906 43.2495 17.547 42.576 17.547Z" fill="#573BD1"/>
<path d="M55.1724 7.4082V24.488H51.4102V7.4082H55.1724Z" fill="#573BD1"/>
<path d="M57.7695 10.874V7.4082H71.2692V10.874H57.7695ZM66.4005 9.21767V24.4976H62.6383V9.21767H66.4005Z" fill="#573BD1"/>
<path d="M89.7332 15.9289C89.7332 17.6713 89.3772 19.2031 88.6651 20.5339C87.9531 21.8647 86.962 22.9082 85.6919 23.6454C84.4218 24.3922 82.9593 24.7656 81.2851 24.7656C79.6301 24.7656 78.1772 24.3922 76.9167 23.6454C75.6562 22.8987 74.6748 21.8647 73.9724 20.5435C73.27 19.2223 72.9139 17.6905 72.9139 15.948C72.9139 14.2056 73.27 12.6738 73.982 11.343C74.694 10.0122 75.6754 8.97823 76.9359 8.23147C78.1964 7.48471 79.6493 7.11133 81.3043 7.11133C82.9785 7.11133 84.4411 7.48471 85.7016 8.23147C86.962 8.97823 87.9435 10.0122 88.6555 11.3334C89.3772 12.6642 89.7332 14.1864 89.7332 15.9289ZM85.7689 15.9289C85.7689 14.8375 85.5957 13.8992 85.2397 13.1237C84.8837 12.3482 84.3737 11.7547 83.7194 11.3334C83.0651 10.9217 82.2665 10.7111 81.3428 10.7111C80.4191 10.7111 79.6205 10.9217 78.9565 11.3334C78.2926 11.7451 77.7827 12.3482 77.4266 13.1237C77.0706 13.8992 76.8974 14.8375 76.8974 15.9289C76.8974 17.0203 77.0706 17.9585 77.4266 18.7436C77.7827 19.5287 78.2926 20.1318 78.9565 20.5435C79.6205 20.9552 80.4191 21.1658 81.3428 21.1658C82.2665 21.1658 83.0651 20.9552 83.7194 20.5339C84.3737 20.1127 84.8837 19.5095 85.2397 18.7245C85.5861 17.9394 85.7689 17.0107 85.7689 15.9289Z" fill="#573BD1"/>
<path d="M100.125 24.7656C98.4124 24.7656 96.921 24.4114 95.6701 23.6933C94.4193 22.9753 93.4474 21.9604 92.7739 20.6488C92.0907 19.3372 91.754 17.7767 91.754 15.9768C91.754 14.196 92.11 12.6355 92.822 11.3143C93.534 9.99309 94.5347 8.96868 95.8144 8.23149C97.0942 7.50387 98.5856 7.13049 100.289 7.13049C101.722 7.13049 103.002 7.38899 104.128 7.90598C105.254 8.42297 106.168 9.15058 106.88 10.0888C107.592 11.0271 108.034 12.1376 108.198 13.411H104.234C103.984 12.5493 103.512 11.8887 102.81 11.4292C102.107 10.9696 101.232 10.7399 100.202 10.7399C99.2784 10.7399 98.4701 10.9505 97.7966 11.3622C97.123 11.7738 96.6131 12.377 96.2571 13.1525C95.901 13.928 95.7278 14.8662 95.7278 15.9576C95.7278 17.0203 95.9107 17.9394 96.2763 18.7245C96.6419 19.5095 97.1615 20.1127 97.8351 20.5339C98.5086 20.9552 99.2976 21.1658 100.212 21.1658C101.26 21.1658 102.155 20.9265 102.887 20.4382C103.618 19.9499 104.109 19.2893 104.34 18.4373H108.236C108.034 19.701 107.563 20.8116 106.832 21.7594C106.1 22.7168 105.157 23.454 104.012 23.971C102.858 24.5071 101.559 24.7656 100.125 24.7656Z" fill="#573BD1"/>
<path d="M114.829 24.488H111.066V7.4082H117.706C119.794 7.4082 121.41 7.8869 122.545 8.85386C123.681 9.81125 124.249 11.1803 124.249 12.9515C124.249 14.0621 124.008 15.0099 123.536 15.7949C123.065 16.58 122.353 17.2214 121.391 17.7097L124.402 24.4976H120.294L117.715 18.5235H114.819V24.488H114.829ZM114.829 10.7399V15.2396H117.686C118.504 15.2396 119.139 15.0386 119.601 14.6365C120.053 14.2344 120.284 13.6791 120.284 12.9515C120.284 12.2239 120.063 11.6782 119.62 11.3048C119.178 10.9314 118.543 10.7399 117.706 10.7399H114.829Z" fill="#573BD1"/>
<path d="M138.285 24.488H127.383V7.4082H138.285V10.874H130.096L131.135 9.90699V14.2248H137.467V17.4991H131.135V21.9988L130.096 21.0318H138.285V24.488Z" fill="#573BD1"/>
<path d="M148.448 24.488H141.723V7.4082H148.217C149.901 7.4082 151.383 7.77201 152.663 8.49005C153.943 9.21767 154.943 10.2229 155.665 11.5154C156.396 12.8079 156.752 14.3014 156.752 15.996C156.752 17.6618 156.396 19.1266 155.694 20.4C154.991 21.6733 154.02 22.6785 152.769 23.3966C151.527 24.1338 150.084 24.488 148.448 24.488ZM145.475 9.12193V22.8317L143.686 21.0318H148.073C149.064 21.0318 149.911 20.8308 150.613 20.4287C151.316 20.0266 151.855 19.4522 152.23 18.6958C152.605 17.9395 152.788 17.0395 152.788 15.996C152.788 14.9237 152.595 13.995 152.201 13.2387C151.806 12.4728 151.239 11.8888 150.508 11.4867C149.776 11.075 148.891 10.874 147.852 10.874H143.695L145.475 9.12193Z" fill="#573BD1"/>
<path d="M163.477 7.4082V24.488H159.715V7.4082H163.477Z" fill="#573BD1"/>
<path d="M166.074 10.874V7.4082H179.574V10.874H166.074ZM174.705 9.21767V24.4976H170.943V9.21767H174.705Z" fill="#573BD1"/>
</svg>
